<svg height="496pt" viewBox="0 0 496.08 496" width="496pt" xmlns="http://www.w3.org/2000/svg"><path d="m432.078125 76.039062c0 11.046876-8.953125 20-20 20-11.042969 0-20-8.953124-20-20 0-11.042968 8.957031-20 20-20 11.046875 0 20 8.957032 20 20zm0 0" fill="#5d9cec"/><path d="m412.078125 96.039062c11.042969 0 20-8.960937 20-20 0-11.039062-8.957031-20-20-20-11.039063 0-20 8.960938-20 20 0 11.039063 8.960937 20 20 20zm60-19.839843c-12.476563 21.601562-34.636719 36-60 36-25.359375 0-47.597656-14.398438-60-36 12.402344-21.597657 34.640625-36 60-36 25.363281 0 47.523437 14.402343 60 36zm0 0" fill="#f5f7fa"/><path d="m328.078125.0390625v151.9999995h24v24l40-24h104v-151.9999995zm84 112.1601565c-25.359375 0-47.597656-14.398438-60-36 12.402344-21.597657 34.640625-36 60-36 25.363281 0 47.523437 14.402343 60 36-12.476563 21.601562-34.636719 36-60 36zm0 0" fill="#5d9cec"/><path d="m32 440.039062v31.992188l-32-31.992188zm0 0" fill="#545c66"/><path d="m336.078125 440.039062-32 31.992188v-31.992188zm0 0" fill="#545c66"/><path d="m304.078125 480.039062v16h-272.078125v-56h272.078125zm0 0" fill="#965353"/><path d="m31.839844 392.039062h16 240.167968 16 24.082032c4.398437 0 8 3.601563 8 8v32c0 4.402344-3.601563 8-8 8h-16c-4.402344 0-11.601563 0-16 0h-256.089844c-4.398438 0-11.601562 0-16 0h-16c-4.398438 0-8-3.597656-8-8v-32c0-4.398437 3.601562-8 8-8zm0 0" fill="#656d78"/><path d="m296 352.199219v39.839843h-256.160156l.167968-39.839843c0-26.550781 21.441407-48 48-48h32l48 40 48-40h32c26.472657 0 47.992188 21.441406 47.992188 48zm0 0" fill="#48cfad"/><path d="m248 304.199219h-24.023438c26.480469 0 48 21.449219 48 48v39.839843h24.023438v-39.839843c0-26.558594-21.519531-48-48-48zm0 0" fill="#37bc9b"/><path d="m216 304.121094v.078125l-48 40-48-40v-27.75c14.398438 7.519531 30.71875 11.757812 48 11.757812s33.601562-4.230469 48-11.757812zm0 0" fill="#eac6bb"/><path d="m64 184.207031c0 40.167969 22.71875 74.960938 56 92.242188v27.75h-32c-26.558594 0-48 21.449219-48 48v-223.992188h24zm0 0" fill="#773e3e"/><path d="m72 128.207031h200v56c0 40.167969-22.71875 74.960938-56 92.242188-14.398438 7.519531-30.71875 11.757812-48 11.757812s-33.601562-4.230469-48-11.757812c-33.28125-17.28125-56-52.082031-56-92.242188v-56zm0 0" fill="#eac6bb"/><path d="m264 128.207031h-16.023438v56c0 40.167969-22.71875 74.960938-56 92.242188-10.800781 5.640625-22.671874 9.429687-35.222656 10.976562 3.703125.445313 7.429688.78125 11.246094.78125 17.28125 0 33.601562-4.230469 48-11.757812 33.28125-17.28125 56-52.082031 56-92.242188v-56zm0 0" fill="#d3b1a9"/><path d="m296 128.207031v223.992188c0-26.550781-21.519531-48-48-48h-32v-27.75c33.28125-17.28125 56-52.082031 56-92.242188v-56zm0 0" fill="#773e3e"/><path d="m168 128.207031h-128c0-70.71875 57.28125-128 128-128 70.640625 0 128 57.28125 128 128zm0 0" fill="#965353"/><g fill="#844747"><path d="m168 .207031c-4.054688 0-8.054688.234375-12.015625.609375 65.015625 6.054688 115.992187 60.726563 115.992187 127.390625h24.023438c0-70.71875-57.359375-128-128-128zm0 0"/><path d="m272 128.207031c0-.007812 0-.007812 0-.015625v-8c0-4.421875-3.574219-8-8-8s-8 3.578125-8 8v8 .015625zm0 0"/><path d="m240 128.207031c0-.007812 0-.007812 0-.015625v-8c0-4.421875-3.574219-8-8-8s-8 3.578125-8 8v8 .015625zm0 0"/><path d="m208 128.207031c0-.007812 0-.007812 0-.015625v-8c0-4.421875-3.574219-8-8-8s-8 3.578125-8 8v8 .015625zm0 0"/><path d="m176 128.207031c0-.007812 0-.007812 0-.015625v-8c0-4.421875-3.574219-8-8-8s-8 3.578125-8 8v8 .015625zm0 0"/><path d="m144 128.207031c0-.007812 0-.007812 0-.015625v-8c0-4.421875-3.574219-8-8-8s-8 3.578125-8 8v8 .015625zm0 0"/><path d="m112 128.207031c0-.007812 0-.007812 0-.015625v-8c0-4.421875-3.574219-8-8-8s-8 3.578125-8 8v8 .015625zm0 0"/><path d="m80 128.207031c0-.007812 0-.007812 0-.015625v-8c0-4.421875-3.574219-8-8-8s-8 3.578125-8 8v8 .015625zm0 0"/></g><path d="m168.238281 376.183594c-4.421875 0-8.039062-3.574219-8.039062-8 0-4.421875 3.535156-8 7.953125-8h.085937c4.417969 0 8 3.578125 8 8 0 4.425781-3.582031 8-8 8zm0 0" fill="#37bc9b"/><path d="m0 432.039062h336.078125v8h-336.078125zm0 0" fill="#656d78"/></svg>